<?xml version="1.0" encoding="UTF-8" standalone="no"?>
<!DOCTYPE svg PUBLIC "-//W3C//DTD SVG 1.1//EN"
 "http://www.w3.org/Graphics/SVG/1.1/DTD/svg11.dtd">
<!-- Generated by graphviz version 2.43.0 (0)
 -->
<!-- Title: %3 Pages: 1 -->
<svg width="338pt" height="260pt"
 viewBox="0.00 0.00 337.89 260.00" xmlns="http://www.w3.org/2000/svg" xmlns:xlink="http://www.w3.org/1999/xlink">
<g id="graph0" class="graph" transform="scale(1 1) rotate(0) translate(4 256)">
<title>%3</title>
<polygon fill="white" stroke="transparent" points="-4,4 -4,-256 333.89,-256 333.89,4 -4,4"/>
<!-- 1289 -->
<g id="node1" class="node">
<title>1289</title>
<ellipse fill="none" stroke="black" cx="34.45" cy="-90" rx="34.39" ry="18"/>
<text text-anchor="middle" x="34.45" y="-86.3" font-family="Times,serif" font-size="14.00">1289</text>
</g>
<!-- 1337 -->
<g id="node2" class="node">
<title>1337</title>
<ellipse fill="none" stroke="black" cx="121.45" cy="-162" rx="34.39" ry="18"/>
<text text-anchor="middle" x="121.45" y="-158.3" font-family="Times,serif" font-size="14.00">1337</text>
</g>
<!-- 1337&#45;&gt;1289 -->
<g id="edge1" class="edge">
<title>1337&#45;&gt;1289</title>
<path fill="none" stroke="black" d="M103.42,-146.5C91.06,-136.55 74.45,-123.19 60.63,-112.07"/>
<polygon fill="black" stroke="black" points="62.44,-109.03 52.45,-105.49 58.05,-114.48 62.44,-109.03"/>
</g>
<!-- 2884 -->
<g id="node4" class="node">
<title>2884</title>
<ellipse fill="none" stroke="black" cx="121.45" cy="-90" rx="34.39" ry="18"/>
<text text-anchor="middle" x="121.45" y="-86.3" font-family="Times,serif" font-size="14.00">2884</text>
</g>
<!-- 1337&#45;&gt;2884 -->
<g id="edge2" class="edge">
<title>1337&#45;&gt;2884</title>
<path fill="none" stroke="black" d="M121.45,-143.7C121.45,-135.98 121.45,-126.71 121.45,-118.11"/>
<polygon fill="black" stroke="black" points="124.95,-118.1 121.45,-108.1 117.95,-118.1 124.95,-118.1"/>
</g>
<!-- 1488 -->
<g id="node3" class="node">
<title>1488</title>
<ellipse fill="none" stroke="black" cx="121.45" cy="-18" rx="34.39" ry="18"/>
<text text-anchor="middle" x="121.45" y="-14.3" font-family="Times,serif" font-size="14.00" fill="red">1488</text>
</g>
<!-- 2884&#45;&gt;1488 -->
<g id="edge3" class="edge">
<title>2884&#45;&gt;1488</title>
<path fill="none" stroke="black" d="M121.45,-71.7C121.45,-63.98 121.45,-54.71 121.45,-46.11"/>
<polygon fill="black" stroke="black" points="124.95,-46.1 121.45,-36.1 117.95,-46.1 124.95,-46.1"/>
</g>
<!-- 3780 -->
<g id="node5" class="node">
<title>3780</title>
<ellipse fill="none" stroke="black" cx="164.45" cy="-234" rx="34.39" ry="18"/>
<text text-anchor="middle" x="164.45" y="-230.3" font-family="Times,serif" font-size="14.00">3780</text>
</g>
<!-- 3780&#45;&gt;1337 -->
<g id="edge4" class="edge">
<title>3780&#45;&gt;1337</title>
<path fill="none" stroke="black" d="M154.47,-216.76C149.28,-208.32 142.82,-197.8 137,-188.31"/>
<polygon fill="black" stroke="black" points="139.88,-186.32 131.66,-179.63 133.92,-189.99 139.88,-186.32"/>
</g>
<!-- 8582 -->
<g id="node7" class="node">
<title>8582</title>
<ellipse fill="none" stroke="black" cx="208.45" cy="-162" rx="34.39" ry="18"/>
<text text-anchor="middle" x="208.45" y="-158.3" font-family="Times,serif" font-size="14.00">8582</text>
</g>
<!-- 3780&#45;&gt;8582 -->
<g id="edge5" class="edge">
<title>3780&#45;&gt;8582</title>
<path fill="none" stroke="black" d="M174.65,-216.76C179.96,-208.32 186.57,-197.8 192.54,-188.31"/>
<polygon fill="black" stroke="black" points="195.63,-189.96 197.99,-179.63 189.71,-186.24 195.63,-189.96"/>
</g>
<!-- 5574 -->
<g id="node6" class="node">
<title>5574</title>
<ellipse fill="none" stroke="black" cx="208.45" cy="-90" rx="34.39" ry="18"/>
<text text-anchor="middle" x="208.45" y="-86.3" font-family="Times,serif" font-size="14.00">5574</text>
</g>
<!-- 8582&#45;&gt;5574 -->
<g id="edge6" class="edge">
<title>8582&#45;&gt;5574</title>
<path fill="none" stroke="black" d="M208.45,-143.7C208.45,-135.98 208.45,-126.71 208.45,-118.11"/>
<polygon fill="black" stroke="black" points="211.95,-118.1 208.45,-108.1 204.95,-118.1 211.95,-118.1"/>
</g>
<!-- 9747 -->
<g id="node8" class="node">
<title>9747</title>
<ellipse fill="none" stroke="black" cx="295.45" cy="-90" rx="34.39" ry="18"/>
<text text-anchor="middle" x="295.45" y="-86.3" font-family="Times,serif" font-size="14.00">9747</text>
</g>
<!-- 8582&#45;&gt;9747 -->
<g id="edge7" class="edge">
<title>8582&#45;&gt;9747</title>
<path fill="none" stroke="black" d="M226.47,-146.5C238.84,-136.55 255.44,-123.19 269.26,-112.07"/>
<polygon fill="black" stroke="black" points="271.85,-114.48 277.44,-105.49 267.46,-109.03 271.85,-114.48"/>
</g>
</g>
</svg>
